<?xml version="1.0" encoding="iso-8859-1"?>
<!-- Generator: Adobe Illustrator 19.0.0, SVG Export Plug-In . SVG Version: 6.00 Build 0)  -->
<svg version="1.1" id="Layer_1" xmlns="http://www.w3.org/2000/svg" xmlns:xlink="http://www.w3.org/1999/xlink" x="0px" y="0px"
	 viewBox="0 0 511.999 511.999" style="enable-background:new 0 0 511.999 511.999;" xml:space="preserve">
<path style="fill:#37CC8F;" d="M472.748,173.114H338.885V39.251C338.885,17.574,321.312,0,299.634,0h-87.268
	c-21.678,0-39.251,17.574-39.251,39.251v133.863H39.251C17.574,173.114,0,190.688,0,212.366v87.268
	c0,21.678,17.574,39.251,39.251,39.251h133.863v133.862c0,21.678,17.574,39.251,39.251,39.251h87.268
	c21.678,0,39.251-17.574,39.251-39.251V338.886h133.863c21.678,0,39.251-17.574,39.251-39.251v-87.268
	C512,190.688,494.426,173.114,472.748,173.114z"/>
<g>
	<path style="fill:#2AA86F;" d="M314.076,472.748c0,21.678-17.574,39.251-39.251,39.251h24.81c21.678,0,39.251-17.574,39.251-39.251
		V338.886h-24.81V472.748z"/>
	<path style="fill:#2AA86F;" d="M314.076,39.251v133.863h24.81V39.251C338.886,17.574,321.312,0,299.634,0h-24.81
		C296.502,0,314.076,17.574,314.076,39.251z"/>
	<path style="fill:#2AA86F;" d="M472.748,173.114h-24.81c21.678,0,39.251,17.574,39.251,39.251v87.268
		c0,21.678-17.574,39.251-39.251,39.251h24.81c21.678,0,39.251-17.574,39.251-39.251v-87.268
		C512,190.688,494.426,173.114,472.748,173.114z"/>
</g>
<g>
	<circle style="fill:#FE9901;" cx="255.997" cy="255.997" r="139.244"/>
	<circle style="fill:#FE9901;" cx="255.997" cy="255.997" r="139.244"/>
</g>
<circle style="fill:#FFFFFF;" cx="255.997" cy="255.997" r="157.338"/>
<circle style="fill:#FE9901;" cx="255.997" cy="255.997" r="139.244"/>
<path style="fill:#ED8803;" d="M255.999,116.751c-4.202,0-8.358,0.197-12.465,0.561c71.064,6.305,126.785,65.985,126.785,138.688
	s-55.721,132.382-126.785,138.687c4.108,0.364,8.263,0.561,12.465,0.561c76.906,0,139.25-62.344,139.25-139.25
	S332.905,116.751,255.999,116.751z"/>
<g>
	<path style="fill:#FFFFFF;" d="M263.95,254.526c-0.058-0.058-0.283-0.283-0.341-0.341c-25.931-25.931-106.06,2.567-97.165,27.038
		c3.884,10.686,11.943,17.846,19.789,22.521c5.776,3.441,11.086,7.602,15.807,12.351c4.749,4.721,8.91,10.032,12.351,15.807
		c4.675,7.846,11.834,15.905,22.521,19.789C261.383,360.586,289.881,280.455,263.95,254.526z"/>
	<path style="fill:#FFFFFF;" d="M245.847,177.65c-5.465,14.416-1.751,41.779,12.664,47.244
		c14.416,5.465,34.073-13.037,39.538-27.452c5.465-14.416-1.791-30.531-16.205-35.996
		C267.429,155.979,251.313,163.235,245.847,177.65z"/>
	<path style="fill:#FFFFFF;" d="M170.297,198.651c2.613,12.941,17.058,31.152,29.999,28.537
		c12.941-2.613,19.476-25.062,16.862-38.002c-2.613-12.941-15.223-21.312-28.164-18.698
		C176.055,173.102,167.684,185.711,170.297,198.651z"/>
	<path style="fill:#FFFFFF;" d="M340.485,272.287c-14.416,5.465-41.779,1.751-47.244-12.664
		c-5.465-14.416,13.037-34.073,27.452-39.538c14.416-5.465,30.531,1.791,35.996,16.205
		C362.155,250.705,354.9,266.822,340.485,272.287z"/>
	<path style="fill:#FFFFFF;" d="M319.484,347.837c-12.941-2.613-31.152-17.058-28.537-29.999s25.062-19.476,38.002-16.862
		c12.941,2.613,21.312,15.223,18.698,28.164C345.033,342.079,332.424,350.45,319.484,347.837z"/>
</g>
<g>
</g>
<g>
</g>
<g>
</g>
<g>
</g>
<g>
</g>
<g>
</g>
<g>
</g>
<g>
</g>
<g>
</g>
<g>
</g>
<g>
</g>
<g>
</g>
<g>
</g>
<g>
</g>
<g>
</g>
</svg>
