<?xml version="1.0" encoding="iso-8859-1"?>
<!-- Generator: Adobe Illustrator 19.0.0, SVG Export Plug-In . SVG Version: 6.00 Build 0)  -->
<svg version="1.1" id="Capa_1" xmlns="http://www.w3.org/2000/svg" xmlns:xlink="http://www.w3.org/1999/xlink" x="0px" y="0px"
	 viewBox="0 0 512 512" style="enable-background:new 0 0 512 512;" xml:space="preserve">
<circle style="fill:#B6FFF6;" cx="256" cy="256" r="256"/>
<path style="fill:#78E9E1;" d="M135.799,135.799c-49.834,49.834-49.836,130.921-0.004,180.758L322.498,503.26
	c87.935-23.59,157.171-92.828,180.763-180.763L316.558,135.794C266.72,85.963,185.633,85.964,135.799,135.799z M265.449,186.902
	c-0.002-0.014-0.003-0.028-0.006-0.041l0.08-0.032L265.449,186.902z"/>
<g transform="matrix(0.7071 -0.7071 0.7071 0.7071 -146.08 352.66)">
	<rect x="322.275" y="281.558" style="fill:#FFA50A;" width="60.779" height="126.858"/>
	<rect x="322.275" y="281.558" style="fill:#501E0F;" width="60.779" height="126.858"/>
</g>
<g>
	<path style="fill:#00558C;" d="M255.398,235.719l7.774-10.126l-4.494-3.449l-8.49,11.06l-1.513,6.066
		c-2.426-0.837-4.865-1.367-7.249-1.609l0.44-10.267l-13.718-7.423l-2.696,4.982l10.602,5.737l-0.297,6.942
		c-1.787,0.169-3.507,0.51-5.124,1.014c-1.095-0.88-2.339-1.613-3.717-2.151c-7.283-2.852-15.499,0.739-18.351,8.022
		c-2.852,7.283,0.739,15.499,8.022,18.351c1.377,0.54,2.788,0.848,4.19,0.944c0.845,1.468,1.876,2.886,3.073,4.224l-4.496,5.297
		l-11.679-2.989l-1.405,5.487l15.11,3.869l6.649-7.835c1.914,1.441,4.064,2.709,6.413,3.742l-3.009,5.48l-1.279,13.885l5.641,0.52
		l1.172-12.711l2.918-5.317c2.163,0.534,4.315,0.829,6.409,0.9l-0.468,10.911l13.718,7.423l2.696-4.982l-10.602-5.737l0.343-7.994
		c6.797-1.182,12.34-4.958,14.606-10.743c2.267-5.787,0.762-12.321-3.424-17.806l5.177-6.101l11.678,2.989l1.405-5.488l-15.11-3.868
		l-7.067,8.326c-1.585-1.37-3.365-2.614-5.315-3.691L255.398,235.719z"/>
	<path style="fill:#00558C;" d="M265.166,176.769l7.437-3.399l-1.508-3.299l-8.123,3.712l-2.676,2.978
		c-1.121-1.201-2.342-2.233-3.619-3.085l3.329-5.677l-5.536-8.316l-3.02,2.011l4.279,6.428l-2.251,3.839
		c-1.062-0.44-2.138-0.763-3.204-0.964c-0.355-0.827-0.84-1.614-1.458-2.333c-3.266-3.799-8.992-4.231-12.791-0.965
		c-3.799,3.266-4.231,8.992-0.965,12.791c0.617,0.719,1.323,1.316,2.087,1.791c0.038,1.084,0.196,2.196,0.472,3.312l-4.133,1.649
		l-5.713-5.195l-2.441,2.684l7.391,6.722l6.112-2.439c0.651,1.39,1.487,2.752,2.507,4.042l-3.347,2.199l-4.89,7.474l3.037,1.986
		l4.476-6.842l3.247-2.134c1.064,0.951,2.193,1.763,3.357,2.432l-3.538,6.034l5.536,8.316l3.02-2.011l-4.279-6.428l2.592-4.421
		c4.201,1.37,8.471,0.896,11.488-1.698c3.019-2.594,4.127-6.745,3.403-11.104l4.76-1.899l5.713,5.195l2.441-2.684l-7.391-6.722
		l-6.496,2.592c-0.486-1.25-1.12-2.489-1.9-3.683L265.166,176.769z"/>
	<path style="fill:#00558C;" d="M202.834,210.726l9.569,0.823l0.365-4.247l-10.453-0.9l-4.459,1.499
		c-0.453-1.878-1.105-3.638-1.918-5.247l6.687-3.881l-0.855-11.705l-4.251,0.31l0.661,9.047l-4.521,2.625
		c-0.832-1.064-1.745-2.016-2.719-2.838c0.114-1.051,0.074-2.137-0.142-3.229c-1.143-5.773-6.751-9.526-12.523-8.382
		c-5.773,1.143-9.526,6.751-8.382,12.523c0.217,1.092,0.593,2.111,1.099,3.039c-0.588,1.13-1.069,2.359-1.433,3.66l-5.181-0.703
		l-2.839-8.615l-4.049,1.333l3.672,11.147l7.661,1.04c-0.138,1.798-0.07,3.674,0.227,5.582l-4.694,0.314l-9.32,4.817l1.956,3.787
		l8.534-4.409l4.554-0.305c0.539,1.587,1.223,3.071,2.026,4.428l-7.106,4.126l0.855,11.705l4.251-0.31l-0.661-9.047l5.207-3.023
		c3.504,3.83,8.144,5.813,12.731,4.905c4.587-0.909,8.12-4.512,9.899-9.387l5.966,0.809l2.839,8.615l4.049-1.333l-3.672-11.147
		l-8.142-1.105c0.226-1.56,0.293-3.193,0.186-4.866L202.834,210.726z"/>
</g>
<path style="fill:#B48255;" d="M226.18,353.999c-70.479,0-127.819-57.339-127.819-127.819S155.701,98.361,226.18,98.361
	s127.819,57.34,127.819,127.819S296.659,353.999,226.18,353.999z M226.18,137.236c-49.045,0-88.944,39.9-88.944,88.944
	s39.9,88.944,88.944,88.944s88.944-39.9,88.944-88.944S275.225,137.236,226.18,137.236z"/>
<path style="fill:#965028;" d="M226.18,98.361v38.874c49.045,0,88.944,39.9,88.944,88.944s-39.9,88.944-88.944,88.944v38.874
	c70.479,0,127.819-57.339,127.819-127.819S296.659,98.361,226.18,98.361z"/>
<g>
</g>
<g>
</g>
<g>
</g>
<g>
</g>
<g>
</g>
<g>
</g>
<g>
</g>
<g>
</g>
<g>
</g>
<g>
</g>
<g>
</g>
<g>
</g>
<g>
</g>
<g>
</g>
<g>
</g>
</svg>
