<?xml version="1.0" encoding="iso-8859-1"?>
<!-- Generator: Adobe Illustrator 19.0.0, SVG Export Plug-In . SVG Version: 6.00 Build 0)  -->
<svg version="1.1" id="Capa_1" xmlns="http://www.w3.org/2000/svg" xmlns:xlink="http://www.w3.org/1999/xlink" x="0px" y="0px"
	 viewBox="0 0 480 480" style="enable-background:new 0 0 480 480;" xml:space="preserve">
<path style="fill:#195C85;" d="M216,416V64h152c0-35.344-28.656-56-64-56H176c-35.346,0-64,28.654-64,64v336
	c0,35.346,28.654,64,64,64h128c35.344,0,64-20.656,64-56H216z"/>
<g>
	<path style="fill:#7FCAC9;" d="M216,224h128c8.837,0,16,7.163,16,16c0,8.837-7.163,16-16,16H216l0,0V224L216,224z"/>
	<path style="fill:#7FCAC9;" d="M216,160h128c8.837,0,16,7.163,16,16s-7.163,16-16,16H216l0,0V160L216,160z"/>
	<path style="fill:#7FCAC9;" d="M216,96h128c8.837,0,16,7.163,16,16s-7.163,16-16,16H216l0,0V96L216,96z"/>
	<path style="fill:#7FCAC9;" d="M216,352h128c8.837,0,16,7.163,16,16s-7.163,16-16,16H216l0,0V352L216,352z"/>
	<path style="fill:#7FCAC9;" d="M216,288h128c8.837,0,16,7.163,16,16s-7.163,16-16,16H216l0,0V288L216,288z"/>
</g>
<g>
	<path style="fill:#FDBD40;" d="M440,144c-4.418,0-8-3.582-8-8c0-13.255-10.745-24-24-24c-4.418,0-8-3.582-8-8s3.582-8,8-8
		c13.255,0,24-10.745,24-24c0-4.418,3.582-8,8-8s8,3.582,8,8c0,13.255,10.745,24,24,24c4.418,0,8,3.582,8,8s-3.582,8-8,8
		c-13.255,0-24,10.745-24,24C448,140.418,444.418,144,440,144z M432,104c3.031,2.276,5.724,4.969,8,8c2.276-3.031,4.969-5.724,8-8
		c-3.031-2.276-5.724-4.969-8-8C437.724,99.031,435.031,101.724,432,104z"/>
	<path style="fill:#FDBD40;" d="M40,416c-4.418,0-8-3.582-8-8c0-13.255-10.745-24-24-24c-4.418,0-8-3.582-8-8s3.582-8,8-8
		c13.255,0,24-10.745,24-24c0-4.418,3.582-8,8-8s8,3.582,8,8c0,13.255,10.745,24,24,24c4.418,0,8,3.582,8,8s-3.582,8-8,8
		c-13.255,0-24,10.745-24,24C48,412.418,44.418,416,40,416z M32,376c3.031,2.276,5.724,4.969,8,8c2.276-3.031,4.969-5.724,8-8
		c-3.031-2.276-5.724-4.969-8-8C37.724,371.031,35.031,373.724,32,376z"/>
</g>
<g>
</g>
<g>
</g>
<g>
</g>
<g>
</g>
<g>
</g>
<g>
</g>
<g>
</g>
<g>
</g>
<g>
</g>
<g>
</g>
<g>
</g>
<g>
</g>
<g>
</g>
<g>
</g>
<g>
</g>
</svg>
